<svg xmlns="http://www.w3.org/2000/svg" xmlns:xlink="http://www.w3.org/1999/xlink" version="1.1" id="Layer_1" x="0" y="0" width="612" height="792" viewBox="0 0 612 792" enable-background="new 0 0 612 792" xml:space="preserve">
    <g>
        <path class="path" d="M595.4 285.3c0-1.6 0.2-3.1 0.2-4.7C595.6 125.9 469.8 0 315.1 0 171.2 0 51.8 107.1 36.2 249.7 23 282.7 16.4 317.5 16.4 353c0 154.7 125.9 280.6 280.6 280.6 139.7 0 256.2-101.2 277-237.7 13.9-32.7 21.7-68.6 21.7-106.3C595.6 288.2 595.5 286.8 595.4 285.3zM541.3 372.7l-1.3 5c-0.2 2.5-0.8 5-1.1 7.5 -29.6 66.3-88.8 116.3-160.8 133.3 0.1-0.8 0.2-1.7 0.2-2.5 0-15-12.2-27.1-27.2-27.1 -15 0-27.2 12.2-27.2 27.1 0 3.2 0.7 6.2 1.6 9 -0.5 0-1.1 0.1-1.6 0.1 -129.8 0-235.3-105.6-235.3-235.3S194.3 54.3 324.1 54.3c128.3 0 232.7 103.2 235.1 230.9C558.6 315.2 552.8 344.7 541.3 372.7zM342.2 515.9c0-5 4.1-9 9.1-9s9.1 4.1 9.1 9c0 2.5-1 4.7-2.6 6.4 -3.5 0.5-7 1.2-10.6 1.5C344.2 522.3 342.2 519.4 342.2 515.9zM297 597.4C162.2 597.4 52.6 487.8 52.6 353c0-10.3 0.9-20.5 2.2-30.6 16.2 134.3 130.7 238.8 269.4 238.8 61.6 0 118.3-20.9 163.9-55.6C443.2 561.9 374.2 597.4 297 597.4z"/>
        <path class="path circle" d="M333.2 181c-54.9 0-99.6 44.7-99.6 99.6 0 54.9 44.7 99.6 99.6 99.6s99.6-44.7 99.6-99.6C432.7 225.7 388 181 333.2 181zM333.2 344c-34.9 0-63.4-28.4-63.4-63.4 0-34.9 28.4-63.4 63.4-63.4 34.9 0 63.4 28.4 63.4 63.4C396.5 315.5 368.1 344 333.2 344z"/>
        <path class="path circle" d="M179.3 334.9c0-15-12.2-27.1-27.2-27.1s-27.2 12.2-27.2 27.1c0 15 12.2 27.2 27.2 27.2S179.3 349.9 179.3 334.9zM152.1 344c-5 0-9-4.1-9-9.1 0-5 4.1-9 9-9 5 0 9.1 4.1 9.1 9C161.2 339.9 157.1 344 152.1 344z"/>
        <path class="path circle" d="M306 144.8c15 0 27.2-12.2 27.2-27.2 0-15-12.2-27.2-27.2-27.2 -15 0-27.1 12.2-27.1 27.2C278.9 132.6 291 144.8 306 144.8zM306 108.6c5 0 9.1 4.1 9.1 9 0 5-4.1 9.1-9.1 9.1 -5 0-9-4.1-9-9.1C297 112.7 301 108.6 306 108.6z"/>
        <path class="path circle" d="M514.2 380.2c15 0 27.2-12.2 27.2-27.2 0-15-12.2-27.2-27.2-27.2 -15 0-27.2 12.2-27.2 27.2C487 368 499.2 380.2 514.2 380.2zM514.2 344c5 0 9.1 4.1 9.1 9 0 5-4.1 9.1-9.1 9.1 -5 0-9-4.1-9-9.1C505.1 348 509.2 344 514.2 344z"/>
        <path class="path" d="M179.3 162.9c-10 0-18.1 8.1-18.1 18.1v18.1c0 10 8.1 18.1 18.1 18.1 10 0 18.1-8.1 18.1-18.1v-18.1C197.4 171 189.3 162.9 179.3 162.9z"/>
        <path class="path" d="M458.9 196.1c3.1 2.1 6.6 3 10 3 5.9 0 11.6-2.8 15.1-8.1 5.6-8.3 3.3-19.6-5-25.1l-54.3-36.2c-8.3-5.6-19.6-3.3-25.1 5 -5.6 8.3-3.3 19.6 5 25.1L458.9 196.1z"/>
        <path class="path" d="M264.5 421.7c-7.1-7.1-18.5-7.1-25.6 0 -7.1 7.1-7.1 18.5 0 25.6l18.1 18.1c3.5 3.5 8.2 5.3 12.8 5.3 4.6 0 9.3-1.8 12.8-5.3 7.1-7.1 7.1-18.5 0-25.6L264.5 421.7z"/>
        <path class="path" d="M460.8 418.3l-36.2 18.1c-8.9 4.5-12.6 15.3-8.1 24.3 3.2 6.3 9.6 10 16.2 10 2.7 0 5.5-0.6 8.1-1.9l36.2-18.1c8.9-4.5 12.6-15.3 8.1-24.3C480.6 417.4 469.8 413.8 460.8 418.3z"/>
        <path class="path" d="M523.2 289.6c10 0 18.1-8.1 18.1-18.1V253.4c0-10-8.1-18.1-18.1-18.1 -10 0-18.1 8.1-18.1 18.1v18.1C505.1 281.5 513.2 289.6 523.2 289.6z"/>
        <path class="path" d="M143.1 271.5c10 0 18.1-8.1 18.1-18.1 0-10-8.1-18.1-18.1-18.1h-18.1c-10 0-18.1 8.1-18.1 18.1 0 10 8.1 18.1 18.1 18.1H143.1z"/>
        <path class="path" d="M179.3 398.3c-10 0-18.1 8.1-18.1 18.1v18.1c0 10 8.1 18.1 18.1 18.1 10 0 18.1-8.1 18.1-18.1v-18.1C197.4 406.4 189.3 398.3 179.3 398.3z"/>
    </g>
</svg>
