<?xml version="1.0" encoding="utf-8"?>
<!-- Generator: Adobe Illustrator 16.0.0, SVG Export Plug-In . SVG Version: 6.00 Build 0)  -->
<!DOCTYPE svg PUBLIC "-//W3C//DTD SVG 1.1//EN" "http://www.w3.org/Graphics/SVG/1.1/DTD/svg11.dtd">
<svg version="1.1" id="Layer_1" xmlns="http://www.w3.org/2000/svg" xmlns:xlink="http://www.w3.org/1999/xlink" x="0px" y="0px"
	 width="612px" height="792px" viewBox="0 0 612 792" enable-background="new 0 0 612 792" xml:space="preserve">
<g>
	<path d="M595.433,285.286c0.02-1.568,0.211-3.118,0.211-4.692C595.644,125.872,469.784,0,315.05,0
		C171.206,0,51.772,107.147,36.172,249.666C23.019,282.748,16.356,317.508,16.356,353c0,154.722,125.872,280.6,280.594,280.6
		c139.745,0,256.155-101.236,277.004-237.686c13.943-32.656,21.683-68.569,21.683-106.268
		C595.644,288.174,595.452,286.752,595.433,285.286z M541.337,372.694l-1.256,5.024c-0.242,2.531-0.778,4.96-1.097,7.459
		c-29.583,66.254-88.837,116.276-160.816,133.28c0.07-0.842,0.248-1.664,0.248-2.537c0-14.964-12.184-27.147-27.159-27.147
		c-14.977,0-27.153,12.184-27.153,27.147c0,3.168,0.656,6.158,1.645,8.982c-0.548,0-1.09,0.077-1.645,0.077
		c-129.761,0-235.333-105.566-235.333-235.334S194.342,54.313,324.104,54.313c128.282,0,232.726,103.201,235.104,230.922
		C558.646,315.231,552.755,344.655,541.337,372.694z M342.203,515.921c0-4.979,4.068-9.047,9.054-9.047s9.053,4.067,9.053,9.047
		c0,2.492-1.001,4.749-2.633,6.388c-3.538,0.51-7.02,1.167-10.615,1.498C344.218,522.29,342.203,519.396,342.203,515.921z
		 M296.95,597.394C162.19,597.394,52.563,487.76,52.563,353c0-10.303,0.88-20.497,2.168-30.628
		c16.232,134.326,130.73,238.814,269.366,238.814c61.633,0,118.33-20.86,163.947-55.575
		C443.191,561.862,374.164,597.394,296.95,597.394z"/>
	<path d="M333.15,181.033c-54.894,0-99.567,44.654-99.567,99.56c0,54.906,44.673,99.567,99.567,99.567s99.573-44.667,99.573-99.567
		C432.724,225.694,388.044,181.033,333.15,181.033z M333.15,343.954c-34.932,0-63.36-28.422-63.36-63.36
		c0-34.931,28.422-63.36,63.36-63.36c34.938,0,63.366,28.429,63.366,63.36C396.517,315.531,368.088,343.954,333.15,343.954z"/>
	<path d="M179.277,334.894c0-14.97-12.184-27.147-27.153-27.147s-27.153,12.177-27.153,27.147c0,14.982,12.184,27.173,27.153,27.173
		S179.277,349.876,179.277,334.894z M152.124,343.954c-4.986,0-9.047-4.068-9.047-9.06c0-4.992,4.067-9.047,9.047-9.047
		c4.985,0,9.06,4.055,9.06,9.047C161.183,339.886,157.115,343.954,152.124,343.954z"/>
	<path d="M305.997,144.827c14.988,0,27.159-12.184,27.159-27.16c0-14.977-12.171-27.154-27.159-27.154
		c-14.977,0-27.147,12.184-27.147,27.154C278.85,132.643,291.021,144.827,305.997,144.827z M305.997,108.62
		c4.998,0,9.053,4.061,9.053,9.047c0,4.998-4.061,9.053-9.053,9.053c-4.986,0-9.041-4.055-9.041-9.053
		C296.95,112.675,301.011,108.62,305.997,108.62z"/>
	<path d="M514.177,380.16c14.982,0,27.166-12.184,27.166-27.16c0-14.976-12.184-27.153-27.166-27.153
		c-14.963,0-27.153,12.177-27.153,27.153C487.023,367.977,499.214,380.16,514.177,380.16z M514.177,343.954
		c4.992,0,9.054,4.055,9.054,9.046c0,4.999-4.062,9.066-9.054,9.066c-4.973,0-9.047-4.068-9.047-9.066
		C505.13,348.008,509.197,343.954,514.177,343.954z"/>
	<path d="M179.277,162.927c-10.003,0-18.094,8.103-18.094,18.106v18.1c0,9.997,8.09,18.1,18.094,18.1
		c10.016,0,18.106-8.104,18.106-18.1v-18.1C197.383,171.036,189.293,162.927,179.277,162.927z"/>
	<path d="M458.882,196.092c3.099,2.053,6.573,3.041,10.029,3.041c5.853,0,11.59-2.831,15.071-8.065
		c5.56-8.32,3.309-19.561-5.011-25.101l-54.313-36.207c-8.346-5.579-19.566-3.303-25.106,5.018c-5.554,8.32-3.31,19.56,5.017,25.107
		L458.882,196.092z"/>
	<path d="M264.492,421.671c-7.07-7.077-18.527-7.077-25.604,0c-7.071,7.064-7.071,18.527,0,25.598l18.1,18.106
		c3.532,3.539,8.173,5.305,12.795,5.305c4.642,0,9.27-1.766,12.802-5.305c7.064-7.063,7.064-18.521,0-25.598L264.492,421.671z"/>
	<path d="M460.833,418.279l-36.213,18.1c-8.945,4.463-12.573,15.34-8.097,24.285c3.175,6.344,9.557,10.01,16.213,10.01
		c2.722,0,5.47-0.619,8.071-1.913l36.213-18.106c8.944-4.463,12.572-15.333,8.104-24.284
		C480.636,417.432,469.765,413.804,460.833,418.279z"/>
	<path d="M523.224,289.646c10.01,0,18.113-8.103,18.113-18.1V253.44c0-9.997-8.104-18.1-18.113-18.1c-9.997,0-18.1,8.104-18.1,18.1
		v18.106C505.13,281.537,513.227,289.646,523.224,289.646z"/>
	<path d="M143.077,271.546c10.003,0,18.106-8.109,18.106-18.106c0-9.997-8.104-18.1-18.106-18.1h-18.1
		c-10.01,0-18.106,8.104-18.106,18.1c0,9.997,8.097,18.106,18.106,18.106H143.077z"/>
	<path d="M179.277,398.267c-10.003,0-18.094,8.103-18.094,18.101v18.1c0,10.003,8.09,18.106,18.094,18.106
		c10.016,0,18.106-8.104,18.106-18.106v-18.1C197.383,406.363,189.293,398.267,179.277,398.267z"/>
</g>
</svg>
